<svg xmlns="http://www.w3.org/2000/svg" xmlns:xlink="http://www.w3.org/1999/xlink" x="0px" y="0px" width="400px" height="400px" viewBox="0 0 400 400" xml:space="preserve"> <g id="Calque_2" display="none"> <rect y="0" display="inline" fill="#084287" width="400" height="400"></rect> </g> <g id="Black"> <g> <g> <path d="M119.195,258.793l-38.591-20.768c3.062-11.625,32.792,4.412,36.124,6.087c7.464,3.771,18.754,9.312,18.754,9.312 S125.162,256.466,119.195,258.793z"></path> <path d="M137.611,252.729l-29.781-14.785c1.303-9.724,24.921,1.326,27.527,2.384c5.841,2.382,17.064,8.593,17.064,8.593 S144.392,250.785,137.611,252.729z"></path> <path d="M310.953,231.213l-21.845,54.227c-35.221-9.484-76.79,20.673-76.79,20.673c-8.777,7.037-16.828,10.62-23.176,12.407 l-0.102-0.205c-0.484,0.242-1.005,0.466-1.555,0.643c0.54-0.13,1.089-0.271,1.657-0.438v0.009 c-2.578,1.285-5.845,1.835-9.541,1.835c-11.365,0.009-26.825-5.232-39.242-10.351c-17.796-7.345-33.313-16.038-33.471-16.131 c-36.366-20.813-53.324-40.721-55.139-42.918c-1.136-1.388-1.759-3.054-1.75-4.691c0.009-1.396,0.447-2.43,1.294-3.072 c1.769-1.34,4.191-0.651,4.321-0.614l0,0l0,0l5.275,2.626l45.183,23.374c-0.977,3.388-0.925,8.346,4.316,12.963 c0,0,0.009,0.009,0.028,0.019c0.186,0.131,1.387,0.95,2.401,1.387c0.019,0.01,0.037,0.019,0.056,0.019 c0.232,0.104,0.446,0.178,0.633,0.215c0,0.009,0.018,0.009,0.018,0.009c4.756,1.508,16.605,2.877,43.915-3.602l35.816-8.023 c2.429-0.698,2.02-1.797,1.358-2.532c-0.446-0.493-1.116-0.697-1.768-0.559l-50.7,11.151c-5.482,1.21-11.076,1.843-16.698,1.787 c-4.551-0.056-8.116-0.531-10.881-1.275c-7.567-2.02-8.525-12.444-1.442-15.768c17.518-8.236,46.11-14.901,46.11-14.901 c40.554-11.132,61.441-27.188,61.441-27.188C268.668,193.609,310.953,231.213,310.953,231.213z"></path> <path d="M116.752,259.81c-1.089,0.409-6.326,1.606-8.541,4.893c-0.083,0.111-0.167,0.232-0.242,0.362 c-0.326,0.531-0.642,1.108-0.912,1.731L57.028,240.79c0,0,0,0,0-0.01c0-0.009,0-0.018,0.009-0.027 c0.019-0.102,0.093-0.484,0.382-2.048c0.009-0.019,0.009-0.027,0.009-0.037c0.326-1.582,1.657-5.203,7.93-4.281 c1.405,0.199,8.836,3.256,13.161,5.135c0.897,0.389,1.772,0.813,2.635,1.275L116.752,259.81z"></path> <path d="M293.85,290.207l23.074-57.85c1.845-4.624,6.3-7.305,10.815-6.254c3.743,0.871,17.887,9.452,22.261,17.246 l-24.154,64.729c0,0-22.741-2.521-29.457-7.834C293.499,297.959,292.445,293.728,293.85,290.207z"></path> </g> <path d="M200.483,146.667v-0.326c8.941-4.552,14.472-13.496,14.472-24.714c0-12.355-6.668-21.787-15.772-25.851 c-5.691-2.602-11.871-3.415-20.16-3.415h-4.28v-9.389c0-1.841-1.493-3.336-3.334-3.336h-9.594c-1.841,0-3.335,1.495-3.335,3.336 v9.389h-10.767v-9.389c0-1.841-1.492-3.336-3.335-3.336h-9.591c-1.841,0-3.335,1.495-3.335,3.336v9.389h-9.819 c-1.158,0-2.093,0.938-2.093,2.094v9.146c0,1.156,0.936,2.094,2.093,2.094h9.819v88.093l-9.264-0.004 c-1.483-0.002-2.686,1.203-2.681,2.689l0.022,8.004c0.005,1.475,1.205,2.672,2.683,2.672h9.241v9.25 c0,1.842,1.494,3.336,3.335,3.336h9.591c1.843,0,3.335-1.494,3.335-3.336v-9.25h10.767v9.25c0,1.842,1.494,3.336,3.335,3.336 h9.594c1.841,0,3.334-1.494,3.334-3.336v-9.25h6.392c6.343,0,11.708-0.326,17.234-2.113c11.871-4.066,21.138-15.447,21.138-30.567 C219.506,161.463,212.841,150.245,200.483,146.667 M179.022,105.695c4.876,0,8.615,0.649,11.867,2.273 c4.878,2.767,7.479,8.455,7.479,15.124c0,10.404-6.502,17.559-16.908,17.559h-33.748v-34.956H179.022z M192.028,192.188 c-3.089,1.303-6.991,1.629-10.243,1.629l-34.073-0.02v-39.805l35.374-0.011c12.032,0,19.835,7.805,19.835,19.672 C202.921,182.273,198.694,189.425,192.028,192.188"></path> </g> </g> <g id="Grey" display="none"> <g display="inline"> <g> <path fill="#8B8B8B" d="M119.195,258.793l-38.591-20.768c3.062-11.625,32.792,4.412,36.124,6.087 c7.464,3.771,18.754,9.312,18.754,9.312S125.162,256.466,119.195,258.793z"></path> <path fill="#8B8B8B" d="M137.611,252.729l-29.781-14.785c1.303-9.724,24.921,1.326,27.527,2.384 c5.841,2.382,17.064,8.593,17.064,8.593S144.392,250.785,137.611,252.729z"></path> <path fill="#8B8B8B" d="M310.953,231.213l-21.845,54.227c-35.221-9.484-76.79,20.673-76.79,20.673 c-8.777,7.037-16.828,10.62-23.176,12.407l-0.102-0.205c-0.484,0.242-1.005,0.466-1.555,0.643c0.54-0.13,1.089-0.271,1.657-0.438 v0.009c-2.578,1.285-5.845,1.835-9.541,1.835c-11.365,0.009-26.825-5.232-39.242-10.351 c-17.796-7.345-33.313-16.038-33.471-16.131c-36.366-20.813-53.324-40.721-55.139-42.918c-1.136-1.388-1.759-3.054-1.75-4.691 c0.009-1.396,0.447-2.43,1.294-3.072c1.769-1.34,4.191-0.651,4.321-0.614l0,0l0,0l5.275,2.626l45.183,23.374 c-0.977,3.388-0.925,8.346,4.316,12.963c0,0,0.009,0.009,0.028,0.019c0.186,0.131,1.387,0.95,2.401,1.387 c0.019,0.01,0.037,0.019,0.056,0.019c0.232,0.104,0.446,0.178,0.633,0.215c0,0.009,0.018,0.009,0.018,0.009 c4.756,1.508,16.605,2.877,43.915-3.602l35.816-8.023c2.429-0.698,2.02-1.797,1.358-2.532c-0.446-0.493-1.116-0.697-1.768-0.559 l-50.7,11.151c-5.482,1.21-11.076,1.843-16.698,1.787c-4.551-0.056-8.116-0.531-10.881-1.275 c-7.567-2.02-8.525-12.444-1.442-15.768c17.518-8.236,46.11-14.901,46.11-14.901c40.554-11.132,61.441-27.188,61.441-27.188 C268.668,193.609,310.953,231.213,310.953,231.213z"></path> <path fill="#8B8B8B" d="M116.752,259.81c-1.089,0.409-6.326,1.606-8.541,4.893c-0.083,0.111-0.167,0.232-0.242,0.362 c-0.326,0.531-0.642,1.108-0.912,1.731L57.028,240.79c0,0,0,0,0-0.01c0-0.009,0-0.018,0.009-0.027 c0.019-0.102,0.093-0.484,0.382-2.048c0.009-0.019,0.009-0.027,0.009-0.037c0.326-1.582,1.657-5.203,7.93-4.281 c1.405,0.199,8.836,3.256,13.161,5.135c0.897,0.389,1.772,0.813,2.635,1.275L116.752,259.81z"></path> <path fill="#8B8B8B" d="M293.85,290.207l23.074-57.85c1.845-4.624,6.3-7.305,10.815-6.254 c3.743,0.871,17.887,9.452,22.261,17.246l-24.154,64.729c0,0-22.741-2.521-29.457-7.834 C293.499,297.959,292.445,293.728,293.85,290.207z"></path> </g> <path fill="#8B8B8B" d="M200.483,146.667v-0.326c8.941-4.552,14.472-13.496,14.472-24.714c0-12.355-6.668-21.787-15.772-25.851 c-5.691-2.602-11.871-3.415-20.16-3.415h-4.28v-9.389c0-1.841-1.493-3.336-3.334-3.336h-9.594c-1.841,0-3.335,1.495-3.335,3.336 v9.389h-10.767v-9.389c0-1.841-1.492-3.336-3.335-3.336h-9.591c-1.841,0-3.335,1.495-3.335,3.336v9.389h-9.819 c-1.158,0-2.093,0.938-2.093,2.094v9.146c0,1.156,0.936,2.094,2.093,2.094h9.819v88.093l-9.264-0.004 c-1.483-0.002-2.686,1.203-2.681,2.689l0.022,8.004c0.005,1.475,1.205,2.672,2.683,2.672h9.241v9.25 c0,1.842,1.494,3.336,3.335,3.336h9.591c1.843,0,3.335-1.494,3.335-3.336v-9.25h10.767v9.25c0,1.842,1.494,3.336,3.335,3.336 h9.594c1.841,0,3.334-1.494,3.334-3.336v-9.25h6.392c6.343,0,11.708-0.326,17.234-2.113c11.871-4.066,21.138-15.447,21.138-30.567 C219.506,161.463,212.841,150.245,200.483,146.667 M179.022,105.695c4.876,0,8.615,0.649,11.867,2.273 c4.878,2.767,7.479,8.455,7.479,15.124c0,10.404-6.502,17.559-16.908,17.559h-33.748v-34.956H179.022z M192.028,192.188 c-3.089,1.303-6.991,1.629-10.243,1.629l-34.073-0.02v-39.805l35.374-0.011c12.032,0,19.835,7.805,19.835,19.672 C202.921,182.273,198.694,189.425,192.028,192.188"></path> </g> </g> </svg>